<svg width="24" height="36" viewBox="0 0 24 36" fill="none" xmlns="http://www.w3.org/2000/svg">
<path d="M19.5281 3.02505C18.6066 3.9225 17.7832 4.72441 16.8911 5.5932C14.8449 3.97188 12.5179 3.26904 9.89282 4.00144C8.08425 4.50608 6.65853 5.56237 5.64944 7.14887C3.5205 10.4958 4.26078 14.5389 7.58857 17.2732C8.64586 16.2176 9.72563 15.1569 10.7855 14.0765C11.8526 12.9888 12.8999 11.8816 13.9455 10.7938C14.9104 11.7522 15.74 12.5762 16.6715 13.5016C14.5302 15.5857 12.3708 17.6872 10.1113 19.8863C10.7292 20.521 11.2135 21.0257 11.7057 21.5224C12.7588 22.5852 13.834 23.6267 14.8657 24.71C15.6533 25.537 15.6516 26.6151 14.9267 27.3593C14.1987 28.1066 13.099 28.1496 12.2821 27.3404C9.3109 24.3968 6.2576 21.5243 3.45223 18.428C-0.327595 14.2563 -0.135314 7.83639 3.67203 3.60706C7.3841 -0.516481 13.7577 -1.19831 18.3329 2.04632C18.7161 2.31807 19.0626 2.64157 19.5281 3.02505Z" fill="#E6F4FB"/>
<path d="M16.9115 18.7757C17.7826 17.8741 18.5797 17.049 19.4355 16.1632C21.6242 18.0252 22.9794 20.3181 23.3762 23.1174C24.0822 28.0973 21.6337 32.7195 17.2333 34.8628C12.8538 36.996 7.82668 36.0796 4.28084 32.5207C3.22649 31.4625 2.13519 30.4412 1.04678 29.3893C2.01241 28.5001 2.87234 27.7083 3.94021 26.7249C4.85649 27.6955 5.90894 28.884 7.03981 29.9925C9.22355 32.1329 11.8207 32.821 14.7362 31.8456C19.6924 30.1874 21.3994 24.1152 18.0844 20.0764C17.7195 19.6319 17.3143 19.2204 16.9115 18.7757Z" fill="#E6F4FB"/>
</svg>
