<svg width="24" height="36" viewBox="0 0 24 36" fill="none" xmlns="http://www.w3.org/2000/svg">
<path d="M19.243 3.02505C18.3214 3.9225 17.498 4.72441 16.6059 5.5932C14.5597 3.97188 12.2327 3.26904 9.60766 4.00144C7.79909 4.50608 6.37337 5.56237 5.36429 7.14887C3.23534 10.4958 3.97562 14.5389 7.30342 17.2732C8.3607 16.2176 9.44048 15.1569 10.5003 14.0765C11.5674 12.9888 12.6148 11.8816 13.6604 10.7938C14.6253 11.7522 15.4548 12.5762 16.3864 13.5016C14.245 15.5857 12.0857 17.6872 9.82613 19.8863C10.4441 20.521 10.9283 21.0257 11.4205 21.5224C12.4736 22.5852 13.5489 23.6267 14.5805 24.71C15.3682 25.537 15.3665 26.6151 14.6416 27.3593C13.9135 28.1066 12.8139 28.1496 11.997 27.3404C9.02574 24.3968 5.97244 21.5243 3.16707 18.428C-0.612751 14.2563 -0.42047 7.83639 3.38687 3.60706C7.09895 -0.516481 13.4725 -1.19831 18.0478 2.04632C18.4309 2.31807 18.7774 2.64157 19.243 3.02505Z" fill="#0793D8"/>
<path d="M16.6264 18.7757C17.4974 17.8741 18.2945 17.049 19.1503 16.1632C21.3391 18.0252 22.6942 20.3181 23.0911 23.1174C23.7971 28.0973 21.3486 32.7195 16.9482 34.8628C12.5687 36.996 7.54155 36.0796 3.99571 32.5207C2.94137 31.4625 1.85007 30.4412 0.761658 29.3893C1.72729 28.5001 2.58721 27.7083 3.65508 26.7249C4.57137 27.6955 5.62382 28.884 6.75468 29.9925C8.93843 32.1329 11.5355 32.821 14.4511 31.8456C19.4072 30.1874 21.1143 24.1152 17.7993 20.0764C17.4344 19.6319 17.0291 19.2204 16.6264 18.7757Z" fill="#0793D8"/>
</svg>
