<svg width="76" height="76" viewBox="0 0 76 76" fill="none" xmlns="http://www.w3.org/2000/svg">
<g opacity="0.5">
<rect width="76" height="76" rx="38" fill="#E6F4FB"/>
</g>
<g opacity="0.7">
<rect x="5.42844" y="5.42859" width="65.1429" height="65.1429" rx="32.5714" fill="#E6F4FB"/>
</g>
<rect x="10.8569" y="10.8571" width="54.2857" height="54.2857" rx="27.1429" fill="#FEFEFE"/>
<path d="M35.9868 46.5088L34.1664 44.1422L34.1664 44.1422L35.9868 46.5088ZM44.7175 39.7929L46.5379 42.1594L44.7175 39.7929ZM44.7175 36.2072L42.8971 38.5737V38.5737L44.7175 36.2072ZM35.9868 29.4913L34.1664 31.8578L35.9868 29.4913ZM29.3601 31.2841V44.7159H35.3315V31.2841H29.3601ZM37.8072 48.8753L46.5379 42.1594L42.8971 37.4263L34.1664 44.1422L37.8072 48.8753ZM46.5379 33.8407L37.8072 27.1247L34.1664 31.8578L42.8971 38.5737L46.5379 33.8407ZM46.5379 42.1594C49.2687 40.0588 49.2687 35.9413 46.5379 33.8407L42.8971 38.5737C42.5204 38.284 42.5204 37.7161 42.8971 37.4263L46.5379 42.1594ZM29.3601 44.7159C29.3601 49.0698 34.3563 51.5299 37.8072 48.8753L34.1664 44.1422C34.6424 43.7761 35.3315 44.1154 35.3315 44.7159H29.3601ZM35.3315 31.2841C35.3315 31.8847 34.6424 32.224 34.1664 31.8578L37.8072 27.1247C34.3563 24.4702 29.3601 26.9303 29.3601 31.2841H35.3315Z" fill="#0793D8"/>
</svg>
