<svg width="248" height="248" viewBox="0 0 248 248" fill="none" xmlns="http://www.w3.org/2000/svg">
<g id="Linear / Users / User Heart" opacity="0.2">
<circle id="Vector" cx="103.333" cy="62" r="41.3333" stroke="#D5D5D5" stroke-width="25"/>
<path id="Vector_2" d="M186 180.833C186 206.515 186 227.333 103.333 227.333C20.6667 227.333 20.6667 206.515 20.6667 180.833C20.6667 155.152 57.6778 134.333 103.333 134.333C148.989 134.333 186 155.152 186 180.833Z" stroke="#D5D5D5" stroke-width="25"/>
<path id="Vector_3" d="M186.915 129.564L194.498 119.627L186.915 129.564ZM196.333 89.3165L187.469 98.1295C189.815 100.49 193.005 101.817 196.333 101.817C199.661 101.817 202.852 100.49 205.198 98.1295L196.333 89.3165ZM205.752 129.564L198.168 119.627L205.752 129.564ZM194.498 119.627C189.187 115.573 185.191 112.881 181.915 109.31C179.069 106.207 177.833 103.492 177.833 100.23H152.833C152.833 111.564 157.828 120.034 163.492 126.209C168.727 131.916 175.521 136.593 179.331 139.501L194.498 119.627ZM177.833 100.23C177.833 97.8369 179.218 96.108 180.661 95.4694C181.309 95.1823 182.05 95.069 182.947 95.2641C183.846 95.4598 185.443 96.0919 187.469 98.1295L205.198 80.5036C194.986 70.232 181.8 67.6265 170.544 72.608C159.974 77.2855 152.833 88.0292 152.833 100.23H177.833ZM179.331 139.501C180.827 140.643 183.078 142.372 185.514 143.749C187.954 145.13 191.711 146.833 196.333 146.833V121.833C197.125 121.833 197.677 121.982 197.908 122.058C198.119 122.127 198.107 122.15 197.823 121.99C197.543 121.832 197.136 121.573 196.546 121.154C195.951 120.731 195.31 120.247 194.498 119.627L179.331 139.501ZM213.336 139.501C217.145 136.593 223.94 131.916 229.175 126.209C234.839 120.034 239.833 111.564 239.833 100.23H214.833C214.833 103.492 213.598 106.207 210.752 109.31C207.476 112.881 203.48 115.573 198.168 119.627L213.336 139.501ZM239.833 100.23C239.833 88.0292 232.693 77.2855 222.123 72.608C210.866 67.6265 197.68 70.232 187.469 80.5036L205.198 98.1295C207.224 96.0919 208.821 95.4598 209.72 95.2641C210.617 95.069 211.357 95.1823 212.006 95.4694C213.449 96.108 214.833 97.8369 214.833 100.23H239.833ZM198.168 119.627C197.357 120.247 196.716 120.731 196.12 121.154C195.531 121.573 195.123 121.832 194.843 121.99C194.56 122.15 194.547 122.127 194.759 122.058C194.989 121.982 195.542 121.833 196.333 121.833V146.833C200.956 146.833 204.713 145.13 207.153 143.749C209.588 142.372 211.839 140.643 213.336 139.501L198.168 119.627Z" fill="#D5D5D5"/>
</g>
</svg>
