<svg width="228" height="228" viewBox="0 0 228 228" fill="none" xmlns="http://www.w3.org/2000/svg">
<path id="Vector" d="M192.492 35.5078L201.331 26.6689V26.6689L192.492 35.5078ZM192.492 145.392L201.331 154.231L192.492 145.392ZM59.3878 121.519L50.549 112.68L50.549 112.68L59.3878 121.519ZM17.6268 163.28L26.4656 172.119H26.4656L17.6268 163.28ZM64.72 210.373L55.8812 201.534L55.8812 201.534L64.72 210.373ZM106.484 168.609L97.6453 159.77L106.484 168.609ZM12.8519 176.892L0.428399 178.272V178.272L12.8519 176.892ZM15.4627 200.389L3.03914 201.769L3.03915 201.769L15.4627 200.389ZM27.6114 212.537L26.231 224.961H26.231L27.6114 212.537ZM51.108 215.148L52.4884 202.725H52.4884L51.108 215.148ZM18.6459 207.012L27.4848 198.173L27.4847 198.173L18.6459 207.012ZM20.9883 209.354L12.1494 218.193L12.1495 218.193L20.9883 209.354ZM62.2986 109.85L50.1914 112.959L62.2986 109.85ZM118.15 165.701L115.041 177.809L115.041 177.809L118.15 165.701ZM67.7879 168.07C62.8795 163.215 54.9651 163.259 50.1105 168.167C45.2558 173.075 45.2993 180.99 50.2077 185.844L67.7879 168.07ZM129.429 98.5711C125.524 94.6658 125.524 88.3342 129.429 84.4289L111.751 66.7513C98.0829 80.4196 98.0829 102.58 111.751 116.249L129.429 98.5711ZM143.571 98.5711C139.666 102.476 133.334 102.476 129.429 98.5711L111.751 116.249C125.42 129.917 147.58 129.917 161.249 116.249L143.571 98.5711ZM143.571 84.4289C147.476 88.3342 147.476 94.6658 143.571 98.5711L161.249 116.249C174.917 102.58 174.917 80.4196 161.249 66.7513L143.571 84.4289ZM161.249 66.7513C147.58 53.0829 125.42 53.0829 111.751 66.7513L129.429 84.4289C133.334 80.5237 139.666 80.5237 143.571 84.4289L161.249 66.7513ZM183.653 44.3466C209.116 69.8087 209.116 111.091 183.653 136.553L201.331 154.231C236.556 119.006 236.556 61.8942 201.331 26.6689L183.653 44.3466ZM201.331 26.6689C166.106 -8.55631 108.994 -8.55631 73.7692 26.6689L91.4469 44.3466C116.909 18.8845 158.191 18.8845 183.653 44.3466L201.331 26.6689ZM50.549 112.68L8.78795 154.441L26.4656 172.119L68.2266 130.358L50.549 112.68ZM73.5588 219.212L87.5134 205.258L69.8357 187.58L55.8812 201.534L73.5588 219.212ZM87.5134 205.258L115.323 177.448L97.6453 159.77L69.8357 187.58L87.5134 205.258ZM0.428399 178.272L3.03914 201.769L27.8862 199.008L25.2755 175.512L0.428399 178.272ZM26.231 224.961L49.7276 227.572L52.4884 202.725L28.9918 200.114L26.231 224.961ZM9.80703 215.85L12.1494 218.193L29.8272 200.515L27.4848 198.173L9.80703 215.85ZM28.9918 200.114C29.3077 200.149 29.6023 200.29 29.8271 200.515L12.1495 218.193C15.9388 221.982 20.905 224.369 26.231 224.961L28.9918 200.114ZM3.03915 201.769C3.63095 207.095 6.01775 212.061 9.80707 215.851L27.4847 198.173C27.7096 198.398 27.8511 198.692 27.8862 199.008L3.03915 201.769ZM55.8812 201.534C54.9897 202.426 53.7414 202.864 52.4884 202.725L49.7276 227.572C58.5287 228.55 67.2972 225.474 73.5589 219.212L55.8812 201.534ZM8.78795 154.441C2.52634 160.703 -0.549506 169.471 0.428399 178.272L25.2755 175.512C25.1363 174.259 25.5742 173.01 26.4656 172.119L8.78795 154.441ZM74.4057 106.741C68.851 85.1102 74.5509 61.2426 91.4469 44.3466L73.7692 26.6689C50.369 50.0691 42.5293 83.122 50.1914 112.959L74.4057 106.741ZM183.653 136.553C166.757 153.449 142.89 159.149 121.259 153.594L115.041 177.809C144.878 185.471 177.931 177.631 201.331 154.231L183.653 136.553ZM115.323 177.448C115.214 177.557 115.098 177.64 114.994 177.697C114.893 177.752 114.822 177.772 114.796 177.778C114.771 177.784 114.784 177.778 114.835 177.779C114.885 177.78 114.956 177.787 115.041 177.809L121.259 153.594C113.458 151.591 104.234 153.181 97.6453 159.77L115.323 177.448ZM68.2266 130.358C74.812 123.772 76.4104 114.547 74.4057 106.741L50.1914 112.959C50.2126 113.042 50.2199 113.112 50.2206 113.162C50.2212 113.212 50.2151 113.226 50.2208 113.202C50.2268 113.177 50.247 113.107 50.3015 113.007C50.3578 112.904 50.4404 112.789 50.549 112.68L68.2266 130.358ZM87.4646 187.531L67.7879 168.07L50.2077 185.844L69.8844 205.306L87.4646 187.531Z" fill="#D5D5D5"/>
</svg>
