<svg width="248" height="248" viewBox="0 0 248 248" fill="none" xmlns="http://www.w3.org/2000/svg">
<g id="vuesax/linear/magic-star">
<g id="magic-star">
<g id="Group">
<g id="Group_2">
<path id="Vector" d="M178.663 42.7803L177.94 81.9434C177.837 87.3167 181.247 94.4469 185.587 97.6502L211.214 117.077C227.644 129.477 224.957 144.667 205.324 150.867L171.947 161.303C166.367 163.06 160.477 169.157 159.03 174.84L151.074 205.22C144.77 229.193 129.063 231.57 116.043 210.49L97.8566 181.04C94.5499 175.667 86.6967 171.637 80.4967 171.947L45.9837 173.703C21.287 174.943 14.2602 160.684 30.3802 141.877L50.84 118.11C54.6634 113.667 56.42 105.4 54.6633 99.8201L44.2272 66.4434C38.1305 46.81 49.0837 35.9602 68.6137 42.3668L99.0972 52.3902C104.264 54.0435 112.014 52.9068 116.354 49.7034L148.181 26.7634C165.334 14.3634 179.077 21.5969 178.663 42.7803Z" stroke="#D5D5D5" stroke-width="25" stroke-linecap="round" stroke-linejoin="round"/>
</g>
<path id="Vector_2" d="M226.403 227.333L195.093 196.023" stroke="#D5D5D5" stroke-width="25" stroke-linecap="round" stroke-linejoin="round"/>
</g>
</g>
</g>
</svg>
