<svg width="248" height="248" viewBox="0 0 248 248" fill="none" xmlns="http://www.w3.org/2000/svg">
<g id="Linear / Time / Hourglass Line" opacity="0.2">
<path id="Vector" d="M124 124L93.4371 154.266C63.2381 184.171 48.1385 199.124 52.3657 212.025C52.7291 213.134 53.1804 214.212 53.7153 215.251C59.9381 227.333 81.2921 227.333 124 227.333C166.708 227.333 188.062 227.333 194.285 215.251C194.82 214.212 195.271 213.134 195.634 212.025C199.861 199.124 184.762 184.171 154.563 154.266L124 124ZM124 124L154.563 93.7343C184.762 63.829 199.861 48.8763 195.634 35.9753C195.271 34.8664 194.82 33.7876 194.285 32.749C188.062 20.6666 166.708 20.6666 124 20.6666C81.2921 20.6666 59.9381 20.6666 53.7153 32.749C53.1804 33.7876 52.7291 34.8664 52.3657 35.9753C48.1385 48.8763 63.2381 63.829 93.4371 93.7343L124 124Z" stroke="#D5D5D5" stroke-width="25"/>
<path id="Vector_2" d="M103.333 56.8334H144.667" stroke="#D5D5D5" stroke-width="25" stroke-linecap="round"/>
<path id="Vector_3" d="M103.333 191.167H144.667" stroke="#D5D5D5" stroke-width="25" stroke-linecap="round"/>
</g>
</svg>
