<svg width="321" height="321" viewBox="0 0 321 321" fill="none" xmlns="http://www.w3.org/2000/svg">
<g id="Sketch-annotation-element-stroke-line-arrow-wiggle-up-1">
<path id="Vector" d="M165.008 38.1741C168.864 40.2728 172.46 43.0112 175.686 45.9879C206.343 74.2786 143.529 80.2961 144.792 103.88C145.882 124.246 181.974 137.574 182.519 166.837C183.047 195.189 151.133 197.319 142.461 217.881C136.066 233.041 146.721 241.24 151.555 254.225C154.61 262.436 154.12 269.491 155.225 277.935" stroke="black" stroke-width="3" stroke-miterlimit="1.5" stroke-linecap="round" stroke-linejoin="round"/>
<path id="Vector_2" d="M142.995 267.238C146.792 269.232 149.751 272.823 152.257 276.176C153.741 278.159 155.303 280.185 156.19 282.518C157.21 275.439 159.119 269.36 163.603 263.677" stroke="black" stroke-width="3" stroke-miterlimit="1.5" stroke-linecap="round" stroke-linejoin="round"/>
</g>
</svg>
