<svg width="430" height="744" viewBox="0 0 430 744" fill="none" xmlns="http://www.w3.org/2000/svg">
<path fill-rule="evenodd" clip-rule="evenodd" d="M429.847 328.208C428.097 382.475 423.647 443.359 387.798 484.137C349.987 527.147 275.709 516.082 232.076 553.172C195.062 584.635 195.62 645.606 159.555 678.152C122.135 711.921 73.5709 734.829 23.5863 741.319C-26.6412 747.84 -82.9813 743.697 -124.763 715.067C-167.904 685.506 -172.052 621.868 -207.223 583.162C-235.618 551.913 -279.09 539.779 -310.09 511.113C-345.839 478.055 -380.674 443.654 -404.192 401.019C-430.821 352.744 -465.561 300.001 -456.544 245.611C-447.568 191.475 -395.049 155.793 -356.98 116.27C-323.042 81.036 -288.216 45.3483 -243.832 24.7749C-201.715 5.25214 -154.145 4.23277 -107.85 0.79106C-66.5622 -2.27847 -26.1819 4.50481 15.2079 5.51681C58.9195 6.58558 101.673 3.47869 145.257 6.97965C201.984 11.5363 265.068 -1.18468 313.035 29.4401C359.17 58.8954 378.051 117.355 397.983 168.334C417.939 219.378 431.613 273.431 429.847 328.208Z" fill="url(#paint0_linear_4287_919)" fill-opacity="0.1"/>
<defs>
<linearGradient id="paint0_linear_4287_919" x1="-14" y1="0" x2="-14" y2="744" gradientUnits="userSpaceOnUse">
<stop stop-color="#12C2E9"/>
<stop offset="0.5" stop-color="#C471ED"/>
<stop offset="1" stop-color="#F64F59"/>
</linearGradient>
</defs>
</svg>
