<svg width="20" height="20" viewBox="0 0 20 20" fill="none" xmlns="http://www.w3.org/2000/svg">
<path id="Vector" d="M17.5025 5.49247H14.1295C13.9502 5.4874 13.7775 5.42435 13.6373 5.31284C13.4971 5.20133 13.3971 5.04739 13.3524 4.87425L12.352 1.70072C12.1889 1.20598 11.8734 0.775201 11.4503 0.469809C11.0272 0.164417 10.5182 0 9.99586 0C9.47354 0 8.96456 0.164417 8.54147 0.469809C8.11838 0.775201 7.80279 1.20598 7.6397 1.70072L6.63936 4.87425C6.5946 5.04739 6.49459 5.20133 6.35441 5.31284C6.21423 5.42435 6.04149 5.4874 5.86224 5.49247H2.48919C1.97145 5.49745 1.46825 5.66387 1.05016 5.96839C0.632064 6.27291 0.320036 6.70026 0.157827 7.19051C-0.0296434 7.70179 -0.0506613 8.25898 0.0977618 8.78285C0.246185 9.30672 0.556492 9.7706 0.984553 10.1085L3.77062 12.2929C3.92252 12.4155 4.03322 12.5815 4.08789 12.7686C4.14256 12.9557 4.13859 13.155 4.07651 13.3397L3.07617 16.6369C2.90861 17.1657 2.91357 17.7339 3.09035 18.2597C3.26713 18.7855 3.60661 19.2419 4.05997 19.5631C4.48064 19.8571 4.98486 20.0085 5.49835 19.9951C6.01184 19.9818 6.50745 19.8043 6.91218 19.489L9.52463 17.4777C9.65946 17.3734 9.82524 17.3168 9.99586 17.3168C10.1665 17.3168 10.3323 17.3734 10.4671 17.4777L13.0796 19.489C13.4832 19.8068 13.9791 19.9858 14.4933 19.9992C15.0074 20.0126 15.5121 19.8596 15.9318 19.5631C16.3851 19.2419 16.7246 18.7855 16.9014 18.2597C17.0782 17.7339 17.0831 17.1657 16.9156 16.6369L15.9152 13.3397C15.8545 13.1555 15.8505 12.9575 15.9035 12.7709C15.9565 12.5844 16.0642 12.4179 16.2128 12.2929L19.0154 10.0755C19.4435 9.73763 19.7538 9.27375 19.9022 8.74988C20.0507 8.22601 20.0296 7.66882 19.8422 7.15754C19.6739 6.67212 19.3582 6.25098 18.939 5.9526C18.5197 5.65422 18.0176 5.4934 17.5025 5.49247Z" fill="#B2DEF3"/>
</svg>
