<svg width="595" height="744" viewBox="0 0 595 744" fill="none" xmlns="http://www.w3.org/2000/svg">
<path fill-rule="evenodd" clip-rule="evenodd" d="M887.847 328.208C886.097 382.475 881.647 443.359 845.798 484.137C807.987 527.147 733.709 516.082 690.076 553.172C653.062 584.635 653.62 645.606 617.555 678.152C580.135 711.921 531.571 734.829 481.586 741.319C431.359 747.84 375.019 743.697 333.237 715.067C290.096 685.506 285.948 621.868 250.777 583.162C222.382 551.913 178.91 539.779 147.91 511.113C112.161 478.055 77.326 443.654 53.8082 401.019C27.1793 352.744 -7.56146 300.001 1.45648 245.611C10.4323 191.475 62.9514 155.793 101.02 116.27C134.958 81.036 169.784 45.3483 214.168 24.7749C256.285 5.25214 303.855 4.23277 350.15 0.79106C391.438 -2.27847 431.818 4.50481 473.208 5.51681C516.919 6.58558 559.673 3.47869 603.257 6.97965C659.984 11.5363 723.068 -1.18468 771.035 29.4401C817.17 58.8954 836.051 117.355 855.983 168.334C875.939 219.378 889.613 273.431 887.847 328.208Z" fill="url(#paint0_linear_4287_883)" fill-opacity="0.1"/>
<defs>
<linearGradient id="paint0_linear_4287_883" x1="444" y1="0" x2="444" y2="744" gradientUnits="userSpaceOnUse">
<stop stop-color="#12C2E9"/>
<stop offset="0.5" stop-color="#C471ED"/>
<stop offset="1" stop-color="#F64F59"/>
</linearGradient>
</defs>
</svg>
